<svg width="32" height="32" viewBox="0 0 32 32" fill="none" xmlns="http://www.w3.org/2000/svg">
<path d="M14.6667 20H17.3333V22.6667H14.6667V20ZM16 5.33332C10.12 5.33332 5.33332 10.12 5.33332 16C5.33332 21.88 10.12 26.6667 16 26.6667C21.88 26.6667 26.6667 21.88 26.6667 16C26.6667 10.12 21.88 5.33332 16 5.33332ZM16 29.3333C14.249 29.3333 12.5152 28.9884 10.8975 28.3184C9.27987 27.6483 7.81001 26.6662 6.5719 25.4281C4.07141 22.9276 2.66666 19.5362 2.66666 16C2.66666 12.4638 4.07141 9.07238 6.5719 6.5719C7.81001 5.33379 9.27987 4.35166 10.8975 3.68159C12.5152 3.01153 14.249 2.66666 16 2.66666C19.5362 2.66666 22.9276 4.07141 25.4281 6.5719C27.9286 9.07238 29.3333 12.4638 29.3333 16C29.3333 17.7509 28.9884 19.4848 28.3184 21.1024C27.6483 22.7201 26.6662 24.19 25.4281 25.4281C24.19 26.6662 22.7201 27.6483 21.1024 28.3184C19.4848 28.9884 17.7509 29.3333 16 29.3333ZM14.6667 9.33332H17.3333V17.3333H14.6667V9.33332Z" fill="white"/>
</svg>
