<svg width="32" height="32" viewBox="0 0 32 32" fill="none" xmlns="http://www.w3.org/2000/svg">
<path d="M14.6667 24H17.3333V21.3333H14.6667V24ZM16 2.66666C8.63999 2.66666 2.66666 8.63999 2.66666 16C2.66666 23.36 8.63999 29.3333 16 29.3333C23.36 29.3333 29.3333 23.36 29.3333 16C29.3333 8.63999 23.36 2.66666 16 2.66666ZM16 26.6667C10.12 26.6667 5.33332 21.88 5.33332 16C5.33332 10.12 10.12 5.33332 16 5.33332C21.88 5.33332 26.6667 10.12 26.6667 16C26.6667 21.88 21.88 26.6667 16 26.6667ZM16 7.99999C13.0533 7.99999 10.6667 10.3867 10.6667 13.3333H13.3333C13.3333 11.8667 14.5333 10.6667 16 10.6667C17.4667 10.6667 18.6667 11.8667 18.6667 13.3333C18.6667 16 14.6667 15.6667 14.6667 20H17.3333C17.3333 17 21.3333 16.6667 21.3333 13.3333C21.3333 10.3867 18.9467 7.99999 16 7.99999Z" fill="white"/>
</svg>
