<svg width="32" height="32" viewBox="0 0 32 32" fill="none" xmlns="http://www.w3.org/2000/svg">
<path d="M2.66666 6.66667L12 2.66667L20 6.66667L28.404 3.06533C28.5054 3.02185 28.6161 3.00423 28.726 3.01406C28.836 3.02389 28.9418 3.06086 29.0339 3.12166C29.126 3.18246 29.2016 3.26518 29.2538 3.3624C29.3061 3.45962 29.3334 3.56829 29.3333 3.67867V25.3333L20 29.3333L12 25.3333L3.59599 28.9347C3.49454 28.9782 3.38388 28.9958 3.27394 28.9859C3.16401 28.9761 3.05823 28.9391 2.96611 28.8783C2.87398 28.8175 2.7984 28.7348 2.74613 28.6376C2.69387 28.5404 2.66656 28.4317 2.66666 28.3213V6.66667ZM21.3333 25.86L26.6667 23.5747V6.71067L21.3333 8.996V25.86ZM18.6667 25.6853V8.98133L13.3333 6.31467V23.0187L18.6667 25.6853ZM10.6667 23.004V6.14L5.33332 8.42533V25.2893L10.6667 23.004Z" fill="white"/>
</svg>
