<svg width="32" height="32" viewBox="0 0 32 32" fill="none" xmlns="http://www.w3.org/2000/svg">
<path d="M13.3357 19.7333C12.3178 19.7333 11.3416 19.34 10.6218 18.6398C9.90204 17.9397 9.49768 16.9901 9.49768 16C9.49768 15.0098 9.90204 14.0602 10.6218 13.3601C11.3416 12.66 12.3178 12.2666 13.3357 12.2666C14.3537 12.2666 15.3299 12.66 16.0497 13.3601C16.7694 14.0602 17.1738 15.0098 17.1738 16C17.1738 16.9901 16.7694 17.9397 16.0497 18.6398C15.3299 19.34 14.3537 19.7333 13.3357 19.7333Z" fill="white"/>
<path fill-rule="evenodd" clip-rule="evenodd" d="M0 5.33332C0 3.86056 1.19391 2.66666 2.66667 2.66666H24C25.4728 2.66666 26.6667 3.86056 26.6667 5.33332L26.6667 12L32 16L26.6667 20L26.6667 26.6667C26.6667 28.1394 25.4728 29.3333 24 29.3333H2.66667C1.19391 29.3333 0 28.1394 0 26.6667V5.33332ZM21.4834 17.0346C21.5273 16.6933 21.5602 16.352 21.5602 16C21.5602 15.648 21.5273 15.296 21.4834 14.9333L23.7972 13.1946C24.0056 13.0346 24.0604 12.7466 23.9288 12.512L21.7356 8.82131C21.604 8.58665 21.308 8.49065 21.0667 8.58665L18.3362 9.65331C17.766 9.23731 17.1738 8.87465 16.483 8.60798L16.0772 5.78131C16.0549 5.65568 15.9877 5.54177 15.8873 5.45977C15.7869 5.37777 15.66 5.33297 15.5289 5.33331H11.1426C10.8684 5.33331 10.6381 5.52531 10.5943 5.78131L10.1885 8.60798C9.49768 8.87465 8.90552 9.23731 8.33529 9.65331L5.60478 8.58665C5.36353 8.49065 5.06745 8.58665 4.93586 8.82131L2.74268 12.512C2.60013 12.7466 2.66592 13.0346 2.87428 13.1946L5.18808 14.9333C5.14422 15.296 5.11132 15.648 5.11132 16C5.11132 16.352 5.14422 16.6933 5.18808 17.0346L2.87428 18.8053C2.66592 18.9653 2.60013 19.2533 2.74268 19.488L4.93586 23.1786C5.06745 23.4133 5.36353 23.4986 5.60478 23.4133L8.33529 22.336C8.90552 22.7626 9.49768 23.1253 10.1885 23.392L10.5943 26.2186C10.6381 26.4746 10.8684 26.6666 11.1426 26.6666H15.5289C15.8031 26.6666 16.0334 26.4746 16.0772 26.2186L16.483 23.392C17.1738 23.1146 17.766 22.7626 18.3362 22.336L21.0667 23.4133C21.308 23.4986 21.604 23.4133 21.7356 23.1786L23.9288 19.488C24.0604 19.2533 24.0056 18.9653 23.7972 18.8053L21.4834 17.0346Z" fill="white"/>
</svg>
